<svg viewBox="0 0 512 512" xmlns="http://www.w3.org/2000/svg" xmlns:xlink="http://www.w3.org/1999/xlink"><style>:root&gt;svg{display:none}:root&gt;svg:target{display:block}</style><svg viewBox="0 0 24 24" id="facebook" xmlns="http://www.w3.org/2000/svg"><path d="M15.997 3.985h2.191V.169C17.81.117 16.51 0 14.996 0c-3.159 0-5.323 1.987-5.323 5.639V9H6.187v4.266h3.486V24h4.274V13.267h3.345l.531-4.266h-3.877V6.062c.001-1.233.333-2.077 2.051-2.077z"/></svg><svg viewBox="0 0 511 511.9" id="instagram" xmlns="http://www.w3.org/2000/svg"><path d="M510.95 150.5c-1.2-27.2-5.598-45.898-11.9-62.102-6.5-17.199-16.5-32.597-29.6-45.398-12.802-13-28.302-23.102-45.302-29.5-16.296-6.3-34.898-10.7-62.097-11.898C334.648.3 325.949 0 256.449 0s-78.199.3-105.5 1.5c-27.199 1.2-45.898 5.602-62.097 11.898-17.204 6.5-32.602 16.5-45.403 29.602-13 12.8-23.097 28.3-29.5 45.3-6.3 16.302-10.699 34.9-11.898 62.098C.75 177.801.449 186.5.449 256s.301 78.2 1.5 105.5c1.2 27.2 5.602 45.898 11.903 62.102 6.5 17.199 16.597 32.597 29.597 45.398 12.801 13 28.301 23.102 45.301 29.5 16.3 6.3 34.898 10.7 62.102 11.898 27.296 1.204 36 1.5 105.5 1.5s78.199-.296 105.5-1.5c27.199-1.199 45.898-5.597 62.097-11.898a130.934 130.934 0 0074.903-74.898c6.296-16.301 10.699-34.903 11.898-62.102 1.2-27.3 1.5-36 1.5-105.5s-.102-78.2-1.3-105.5zm-46.098 209c-1.102 25-5.301 38.5-8.801 47.5-8.602 22.3-26.301 40-48.602 48.602-9 3.5-22.597 7.699-47.5 8.796-27 1.204-35.097 1.5-103.398 1.5s-76.5-.296-103.403-1.5c-25-1.097-38.5-5.296-47.5-8.796C94.551 451.5 84.45 445 76.25 436.5c-8.5-8.3-15-18.3-19.102-29.398-3.5-9-7.699-22.602-8.796-47.5-1.204-27-1.5-35.102-1.5-103.403s.296-76.5 1.5-103.398c1.097-25 5.296-38.5 8.796-47.5C61.25 94.199 67.75 84.1 76.352 75.898c8.296-8.5 18.296-15 29.398-19.097 9-3.5 22.602-7.7 47.5-8.801 27-1.2 35.102-1.5 103.398-1.5 68.403 0 76.5.3 103.403 1.5 25 1.102 38.5 5.3 47.5 8.8 11.097 4.098 21.199 10.598 29.398 19.098 8.5 8.301 15 18.301 19.102 29.403 3.5 9 7.699 22.597 8.8 47.5 1.2 27 1.5 35.097 1.5 103.398s-.3 76.301-1.5 103.301zm0 0"/><path d="M256.45 124.5c-72.598 0-131.5 58.898-131.5 131.5s58.902 131.5 131.5 131.5c72.6 0 131.5-58.898 131.5-131.5s-58.9-131.5-131.5-131.5zm0 216.8c-47.098 0-85.302-38.198-85.302-85.3s38.204-85.3 85.301-85.3c47.102 0 85.301 38.198 85.301 85.3s-38.2 85.3-85.3 85.3zm167.402-222c0 16.954-13.747 30.7-30.704 30.7-16.953 0-30.699-13.746-30.699-30.7 0-16.956 13.746-30.698 30.7-30.698 16.956 0 30.703 13.742 30.703 30.699zm0 0"/></svg><svg viewBox="0 0 24 24" id="vk" xmlns="http://www.w3.org/2000/svg"><path d="M19.915 13.028c-.388-.49-.277-.708 0-1.146.005-.005 3.208-4.431 3.538-5.932l.002-.001c.164-.547 0-.949-.793-.949h-2.624c-.668 0-.976.345-1.141.731 0 0-1.336 3.198-3.226 5.271-.61.599-.892.791-1.225.791-.164 0-.419-.192-.419-.739V5.949c0-.656-.187-.949-.74-.949H9.161c-.419 0-.668.306-.668.591 0 .622.945.765 1.043 2.515v3.797c0 .832-.151.985-.486.985-.892 0-3.057-3.211-4.34-6.886-.259-.713-.512-1.001-1.185-1.001H.9c-.749 0-.9.345-.9.731 0 .682.892 4.073 4.148 8.553C6.318 17.343 9.374 19 12.154 19c1.671 0 1.875-.368 1.875-1.001 0-2.922-.151-3.198.686-3.198.388 0 1.056.192 2.616 1.667C19.114 18.217 19.407 19 20.405 19h2.624c.748 0 1.127-.368.909-1.094-.499-1.527-3.871-4.668-4.023-4.878z"/></svg><svg viewBox="0 0 90.677 90.677" id="youtube-logotype" xmlns="http://www.w3.org/2000/svg"><path d="M82.287 45.907c-.937-4.071-4.267-7.074-8.275-7.521-9.489-1.06-19.098-1.065-28.66-1.06-9.566-.005-19.173 0-28.665 1.06-4.006.448-7.334 3.451-8.27 7.521-1.334 5.797-1.35 12.125-1.35 18.094 0 5.969 0 12.296 1.334 18.093.936 4.07 4.264 7.073 8.272 7.521 9.49 1.061 19.097 1.065 28.662 1.061 9.566.005 19.171 0 28.664-1.061 4.006-.448 7.336-3.451 8.272-7.521 1.333-5.797 1.34-12.124 1.34-18.093-.001-5.97.009-12.297-1.324-18.094zM28.9 50.4h-5.54v29.438h-5.146V50.4h-5.439v-4.822H28.9V50.4zm13.977 29.439h-4.629v-2.785c-1.839 2.108-3.585 3.136-5.286 3.136-1.491 0-2.517-.604-2.98-1.897-.252-.772-.408-1.994-.408-3.796V54.311h4.625v18.795c0 1.084 0 1.647.042 1.799.111.718.462 1.082 1.082 1.082.928 0 1.898-.715 2.924-2.166v-19.51h4.629l.001 25.528zm17.573-7.662c0 2.361-.159 4.062-.468 5.144-.618 1.899-1.855 2.869-3.695 2.869-1.646 0-3.234-.914-4.781-2.824v2.474h-4.625V45.578h4.625v11.189c1.494-1.839 3.08-2.769 4.781-2.769 1.84 0 3.078.969 3.695 2.88.311 1.027.468 2.715.468 5.132v10.167zm17.457-4.259h-9.251v4.525c0 2.363.773 3.543 2.363 3.543 1.139 0 1.802-.619 2.066-1.855.043-.251.104-1.279.104-3.134h4.719v.675c0 1.491-.057 2.518-.099 2.98a6.591 6.591 0 01-1.08 2.771c-1.281 1.854-3.179 2.768-5.595 2.768-2.42 0-4.262-.871-5.599-2.614-.981-1.278-1.485-3.29-1.485-6.003v-8.941c0-2.729.447-4.725 1.43-6.015 1.336-1.747 3.177-2.617 5.54-2.617 2.321 0 4.161.87 5.457 2.617.969 1.29 1.432 3.286 1.432 6.015v5.285h-.002z"/><path d="M70.978 58.163c-1.546 0-2.321 1.181-2.321 3.541v2.362h4.625v-2.362c-.001-2.36-.774-3.541-2.304-3.541zm-17.166 0c-.762 0-1.534.36-2.307 1.125v15.559c.772.774 1.545 1.14 2.307 1.14 1.334 0 2.012-1.14 2.012-3.445V61.646c0-2.302-.678-3.483-2.012-3.483zm2.584-23.19c1.705 0 3.479-1.036 5.34-3.168v2.814h4.675V8.82h-4.675v19.718c-1.036 1.464-2.018 2.188-2.953 2.188-.626 0-.994-.37-1.096-1.095-.057-.153-.057-.722-.057-1.817V8.82h-4.66v20.4c0 1.822.156 3.055.414 3.836.47 1.307 1.507 1.917 3.012 1.917zM23.851 20.598v14.021h5.184V20.598L35.271 0h-5.242l-3.537 13.595L22.812 0h-5.455c1.093 3.209 2.23 6.434 3.323 9.646 1.663 4.828 2.701 8.468 3.171 10.952zm18.368 14.375c2.342 0 4.162-.881 5.453-2.641.981-1.291 1.451-3.325 1.451-6.067v-9.034c0-2.758-.469-4.774-1.451-6.077-1.291-1.765-3.11-2.646-5.453-2.646-2.33 0-4.149.881-5.443 2.646-.993 1.303-1.463 3.319-1.463 6.077v9.034c0 2.742.47 4.776 1.463 6.067 1.293 1.76 3.113 2.641 5.443 2.641zm-2.231-18.679c0-2.387.724-3.577 2.231-3.577s2.229 1.189 2.229 3.577v10.852c0 2.387-.722 3.581-2.229 3.581-1.507 0-2.231-1.194-2.231-3.581V16.294z"/></svg></svg>